<mxfile host="app.diagrams.net" modified="2023-09-17T12:48:31.929Z" agent="Mozilla/5.0 (Windows NT 10.0; Win64; x64) AppleWebKit/537.36 (KHTML, like Gecko) Chrome/116.0.0.0 Safari/537.36" version="21.7.5" etag="iikLzo7mzRPaQ4mEJWRK" type="github">
  <diagram name="Page-1" id="baHjwzmOf_UHPznftWON">
    <mxGraphModel>
      <root>
        <mxCell id="0" />
        <mxCell id="1" parent="0" />
      </root>
    </mxGraphModel>
  </diagram>
</mxfile>
